<svg width="0" height="0" class="hidden">
  <symbol fill="none" xmlns="http://www.w3.org/2000/svg" viewBox="0 0 24 24" id="cart">
    <g id="SVGRepo_bgCarrier" stroke-width="0"></g>
    <g id="SVGRepo_tracerCarrier" stroke-linecap="round" stroke-linejoin="round"></g>
    <g id="SVGRepo_iconCarrier">
      <path d="M7.5 18C8.32843 18 9 18.6716 9 19.5C9 20.3284 8.32843 21 7.5 21C6.67157 21 6 20.3284 6 19.5C6 18.6716 6.67157 18 7.5 18Z" stroke="#000000" stroke-width="1.5"></path>
      <path d="M16.5 18.0001C17.3284 18.0001 18 18.6716 18 19.5001C18 20.3285 17.3284 21.0001 16.5 21.0001C15.6716 21.0001 15 20.3285 15 19.5001C15 18.6716 15.6716 18.0001 16.5 18.0001Z" stroke="#000000" stroke-width="1.5"></path>
      <path d="M2.26121 3.09184L2.50997 2.38429H2.50997L2.26121 3.09184ZM2.24876 2.29246C1.85799 2.15507 1.42984 2.36048 1.29246 2.75124C1.15507 3.14201 1.36048 3.57016 1.75124 3.70754L2.24876 2.29246ZM4.58584 4.32298L5.20507 3.89983V3.89983L4.58584 4.32298ZM5.88772 14.5862L5.34345 15.1022H5.34345L5.88772 14.5862ZM20.6578 9.88275L21.3923 10.0342L21.3933 10.0296L20.6578 9.88275ZM20.158 12.3075L20.8926 12.4589L20.158 12.3075ZM20.7345 6.69708L20.1401 7.15439L20.7345 6.69708ZM19.1336 15.0504L18.6598 14.469L19.1336 15.0504ZM5.70808 9.76V7.03836H4.20808V9.76H5.70808ZM2.50997 2.38429L2.24876 2.29246L1.75124 3.70754L2.01245 3.79938L2.50997 2.38429ZM10.9375 16.25H16.2404V14.75H10.9375V16.25ZM5.70808 7.03836C5.70808 6.3312 5.7091 5.7411 5.65719 5.26157C5.60346 4.76519 5.48705 4.31247 5.20507 3.89983L3.96661 4.74613C4.05687 4.87822 4.12657 5.05964 4.1659 5.42299C4.20706 5.8032 4.20808 6.29841 4.20808 7.03836H5.70808ZM2.01245 3.79938C2.68006 4.0341 3.11881 4.18965 3.44166 4.34806C3.74488 4.49684 3.87855 4.61727 3.96661 4.74613L5.20507 3.89983C4.92089 3.48397 4.54304 3.21763 4.10241 3.00143C3.68139 2.79485 3.14395 2.60719 2.50997 2.38429L2.01245 3.79938ZM4.20808 9.76C4.20808 11.2125 4.22171 12.2599 4.35876 13.0601C4.50508 13.9144 4.79722 14.5261 5.34345 15.1022L6.43198 14.0702C6.11182 13.7325 5.93913 13.4018 5.83723 12.8069C5.72607 12.1578 5.70808 11.249 5.70808 9.76H4.20808ZM10.9375 14.75C9.52069 14.75 8.53763 14.7482 7.79696 14.6432C7.08215 14.5418 6.70452 14.3576 6.43198 14.0702L5.34345 15.1022C5.93731 15.7286 6.69012 16.0013 7.58636 16.1283C8.45674 16.2518 9.56535 16.25 10.9375 16.25V14.75ZM4.95808 6.87H17.0888V5.37H4.95808V6.87ZM19.9232 9.73135L19.4235 12.1561L20.8926 12.4589L21.3923 10.0342L19.9232 9.73135ZM17.0888 6.87C17.9452 6.87 18.6989 6.871 19.2937 6.93749C19.5893 6.97053 19.8105 7.01643 19.9659 7.07105C20.1273 7.12776 20.153 7.17127 20.1401 7.15439L21.329 6.23978C21.094 5.93436 20.7636 5.76145 20.4632 5.65587C20.1567 5.54818 19.8101 5.48587 19.4604 5.44678C18.7646 5.369 17.9174 5.37 17.0888 5.37V6.87ZM21.3933 10.0296C21.5625 9.18167 21.7062 8.47024 21.7414 7.90038C21.7775 7.31418 21.7108 6.73617 21.329 6.23978L20.1401 7.15439C20.2021 7.23508 20.2706 7.38037 20.2442 7.80797C20.2168 8.25191 20.1002 8.84478 19.9223 9.73595L21.3933 10.0296ZM16.2404 16.25C17.0021 16.25 17.6413 16.2513 18.1566 16.1882C18.6923 16.1227 19.1809 15.9794 19.6074 15.6318L18.6598 14.469C18.5346 14.571 18.3571 14.6525 17.9744 14.6994C17.5712 14.7487 17.0397 14.75 16.2404 14.75V16.25ZM19.4235 12.1561C19.2621 12.9389 19.1535 13.4593 19.0238 13.8442C18.9007 14.2095 18.785 14.367 18.6598 14.469L19.6074 15.6318C20.0339 15.2842 20.2729 14.8346 20.4453 14.3232C20.6111 13.8312 20.7388 13.2049 20.8926 12.4589L19.4235 12.1561Z" fill="#000000"></path>
    </g>
  </symbol>
  <symbol version="1.1" xmlns="http://www.w3.org/2000/svg" xmlns:xlink="http://www.w3.org/1999/xlink" fill="#000000" viewBox="0 0 24 24" id="search">
    <g id="SVGRepo_bgCarrier" stroke-width="0"></g>
    <g id="SVGRepo_tracerCarrier" stroke-linecap="round" stroke-linejoin="round"></g>
    <g id="SVGRepo_iconCarrier">
      <title>search_2_line</title>
      <g id="页面-1" stroke="none" stroke-width="1" fill="none" fill-rule="evenodd">
        <g id="File" transform="translate(-240.000000, -288.000000)">
          <g id="search_2_line" transform="translate(240.000000, 288.000000)">
            <path d="M24,0 L24,24 L0,24 L0,0 L24,0 Z M12.5934901,23.257841 L12.5819402,23.2595131 L12.5108777,23.2950439 L12.4918791,23.2987469 L12.4918791,23.2987469 L12.4767152,23.2950439 L12.4056548,23.2595131 C12.3958229,23.2563662 12.3870493,23.2590235 12.3821421,23.2649074 L12.3780323,23.275831 L12.360941,23.7031097 L12.3658947,23.7234994 L12.3769048,23.7357139 L12.4804777,23.8096931 L12.4953491,23.8136134 L12.4953491,23.8136134 L12.5071152,23.8096931 L12.6106902,23.7357139 L12.6232938,23.7196733 L12.6232938,23.7196733 L12.6266527,23.7031097 L12.609561,23.275831 C12.6075724,23.2657013 12.6010112,23.2592993 12.5934901,23.257841 L12.5934901,23.257841 Z M12.8583906,23.1452862 L12.8445485,23.1473072 L12.6598443,23.2396597 L12.6498822,23.2499052 L12.6498822,23.2499052 L12.6471943,23.2611114 L12.6650943,23.6906389 L12.6699349,23.7034178 L12.6699349,23.7034178 L12.678386,23.7104931 L12.8793402,23.8032389 C12.8914285,23.8068999 12.9022333,23.8029875 12.9078286,23.7952264 L12.9118235,23.7811639 L12.8776777,23.1665331 C12.8752882,23.1545897 12.8674102,23.1470016 12.8583906,23.1452862 L12.8583906,23.1452862 Z M12.1430473,23.1473072 C12.1332178,23.1423925 12.1221763,23.1452606 12.1156365,23.1525954 L12.1099173,23.1665331 L12.0757714,23.7811639 C12.0751323,23.7926639 12.0828099,23.8018602 12.0926481,23.8045676 L12.108256,23.8032389 L12.3092106,23.7104931 L12.3186497,23.7024347 L12.3186497,23.7024347 L12.3225043,23.6906389 L12.340401,23.2611114 L12.337245,23.2485176 L12.337245,23.2485176 L12.3277531,23.2396597 L12.1430473,23.1473072 Z" id="MingCute" fill-rule="nonzero"></path>
            <path d="M5,10 C5,7.23858 7.23858,5 10,5 C12.7614,5 15,7.23858 15,10 C15,12.7614 12.7614,15 10,15 C7.23858,15 5,12.7614 5,10 Z M10,3 C6.13401,3 3,6.13401 3,10 C3,13.866 6.13401,17 10,17 C11.5723,17 13.0236,16.4816 14.1922,15.6064 L19.2929,20.7071 C19.6834,21.0976 20.3166,21.0976 20.7071,20.7071 C21.0976,20.3166 21.0976,19.6834 20.7071,19.2929 L15.6064,14.1922 C16.4816,13.0236 17,11.5723 17,10 C17,6.13401 13.866,3 10,3 Z" id="形状" fill="#000000"></path>
          </g>
        </g>
      </g>
    </g>
  </symbol>
  <symbol fill="none" xmlns="http://www.w3.org/2000/svg" viewBox="0 0 24 24" id="user">
    <g id="SVGRepo_bgCarrier" stroke-width="0"></g>
    <g id="SVGRepo_tracerCarrier" stroke-linecap="round" stroke-linejoin="round"></g>
    <g id="SVGRepo_iconCarrier">
      <circle cx="12" cy="6" r="4" stroke="#000000" stroke-width="1.5"></circle>
      <path d="M19.9975 18C20 17.8358 20 17.669 20 17.5C20 15.0147 16.4183 13 12 13C7.58172 13 4 15.0147 4 17.5C4 19.9853 4 22 12 22C14.231 22 15.8398 21.8433 17 21.5634" stroke="#000000" stroke-width="1.5" stroke-linecap="round"></path>
    </g>
  </symbol>
  <symbol fill="#000000" xmlns="http://www.w3.org/2000/svg" viewBox="0 0 28 28" id="burger">
    <path d="M4 7C4 6.44771 4.44772 6 5 6H24C24.5523 6 25 6.44771 25 7C25 7.55229 24.5523 8 24 8H5C4.44772 8 4 7.55229 4 7Z" fill="#000000"></path>
    <path d="M4 13.9998C4 13.4475 4.44772 12.9997 5 12.9997L16 13C16.5523 13 17 13.4477 17 14C17 14.5523 16.5523 15 16 15L5 14.9998C4.44772 14.9998 4 14.552 4 13.9998Z" fill="#000000"></path>
    <path d="M5 19.9998C4.44772 19.9998 4 20.4475 4 20.9998C4 21.552 4.44772 21.9997 5 21.9997H22C22.5523 21.9997 23 21.552 23 20.9998C23 20.4475 22.5523 19.9998 22 19.9998H5Z" fill="#000000"></path>
  </symbol>
  <symbol fill="none" xmlns="http://www.w3.org/2000/svg" viewBox="0 0 80 24" id="SPF">
    <path d="M18.7508 11.1856C18.4521 10.7776 18.2433 10.5889 17.9649 10.4398C17.6963 10.2904 17.3682 10.2107 17.0402 10.2107C16.354 10.2107 15.8567 10.5489 15.8567 11.0263C15.8567 11.4138 16.0853 11.5834 16.8115 11.752L17.7758 11.9807C18.4721 12.1499 18.9194 12.3389 19.2275 12.597C19.6255 12.9356 19.8344 13.4127 19.8344 13.9795C19.8344 15.2526 18.7404 16.1074 17.1296 16.1074C16.2348 16.1074 15.4494 15.879 14.8924 15.4412C14.6141 15.2326 14.4845 15.0933 14.1862 14.6959L15.2406 13.9497C15.5188 14.3578 15.7873 14.5963 16.175 14.765C16.4832 14.9046 16.8907 14.9839 17.2588 14.9839C18.0145 14.9839 18.5015 14.6266 18.5015 14.0792C18.5015 13.6316 18.1936 13.3828 17.3979 13.2143L16.5329 13.0251C15.1509 12.7265 14.5542 12.1602 14.5542 11.1356C14.5542 9.92281 15.5684 9.08716 17.0602 9.08716C17.8655 9.08716 18.5517 9.31543 19.1382 9.79336C19.3572 9.98243 19.4662 10.0915 19.7647 10.4296L18.7508 11.1856Z" fill="#141617"></path>
    <path d="M22.2587 15.9083H21.0354V9.28601H23.4519C25.0029 9.28601 25.938 10.1115 25.938 11.474C25.938 12.2491 25.5898 12.9157 24.9732 13.3237C24.5756 13.5915 24.1774 13.6909 23.5313 13.6909H22.2587V15.9083ZM23.2433 12.6274C24.1878 12.6274 24.6452 12.2398 24.6452 11.4245C24.6452 10.6886 24.2376 10.3402 23.3426 10.3402H22.2587V12.6274H23.2433Z" fill="#141617"></path>
    <path d="M28.2335 15.9084H27.0103V9.28613H29.5358C30.5102 9.28613 31.1068 9.50506 31.5347 10.0323C31.8328 10.3999 32.0114 10.917 32.0114 11.4042C32.0114 12.0009 31.7732 12.5175 31.3254 12.8752C31.1363 13.0251 31.0174 13.1048 30.6894 13.2538L32.1411 15.9085H30.7686L29.4561 13.4528H28.2335V15.9084ZM29.4064 12.3987C30.2415 12.3987 30.7189 12.0111 30.7189 11.3445C30.7189 10.7083 30.2514 10.3402 29.4364 10.3402H28.2334V12.3987H29.4064Z" fill="#141617"></path>
    <path d="M34.8503 9.28601H33.6277V15.9083H34.8503V9.28601Z" fill="#141617"></path>
    <path d="M41.7775 15.9084H40.6739L37.8494 11.3748V15.9084H36.6962V9.28601H37.8596L40.6143 13.7605V9.28601H41.7775V15.9084Z" fill="#141617"></path>
    <path d="M49.2125 15.9084H48.1582V15.3419C47.8798 15.58 47.7801 15.6597 47.5915 15.7695C47.2132 15.9777 46.7361 16.1072 46.2691 16.1072C44.4894 16.1072 43.1967 14.6455 43.1967 12.6369C43.1967 10.5591 44.5191 9.08716 46.3884 9.08716C47.224 9.08716 47.9992 9.40529 48.5362 9.95257C48.8242 10.2605 48.9536 10.4594 49.1725 10.9965L48.029 11.4739C47.7111 10.5988 47.1736 10.1808 46.3585 10.1808C45.2446 10.1808 44.519 11.1161 44.519 12.5571C44.519 14.0292 45.2551 14.9541 46.4081 14.9541C47.373 14.9541 47.9795 14.3769 48.0789 13.3735H46.4278V12.2989H49.2125V15.9084Z" fill="#141617"></path>
    <path d="M55.3344 10.3798H52.0533V12.0506H54.8769V13.1046H52.0533V15.9084H50.8302V9.28613H55.3344V10.3798Z" fill="#141617"></path>
    <path d="M57.6989 9.28601H56.4762V15.9083H57.6989V9.28601Z" fill="#141617"></path>
    <path d="M64.1103 10.3798H60.6301V11.9515H63.832V13.005H60.6301V14.8151H64.3887V15.9084H59.4077V9.28613H64.1103V10.3798Z" fill="#141617"></path>
    <path d="M66.8534 14.8152H69.5877V15.9084H65.6298V9.2865H66.8534V14.8152Z" fill="#141617"></path>
    <path d="M70.5704 9.2865H72.5989C73.5334 9.2865 74.0108 9.3755 74.5181 9.65405C74.7962 9.80276 75.045 10.0123 75.2536 10.2602C75.7507 10.847 76 11.6528 76 12.6371C76 14.0192 75.4624 15.0835 74.5181 15.5502C74.0207 15.7994 73.4142 15.9084 72.5989 15.9084H70.5704V9.2865ZM72.4895 14.8152C73.6029 14.8152 74.0905 14.6359 74.3687 14.1191C74.5773 13.7405 74.6672 13.2538 74.6672 12.5871C74.6672 10.9969 74.0607 10.3798 72.4896 10.3798H71.7933V14.8152H72.4895Z" fill="#141617"></path>
    <path d="M14.5344 11.1022C14.5344 12.1267 15.1314 12.6933 16.5146 12.9916L17.3795 13.1809C18.1756 13.3491 18.4836 13.5984 18.4836 14.0447C18.4836 14.5931 17.9958 14.9502 17.2403 14.9502C16.8721 14.9502 16.4644 14.8717 16.1563 14.7321C15.7671 14.5624 15.5002 14.3245 15.2206 13.9155L14.1664 14.6635C14.4656 15.061 14.5946 15.2001 14.8733 15.4083C15.4297 15.8475 16.2169 16.0763 17.1109 16.0763C18.7217 16.0763 19.816 15.2198 19.816 13.9461C19.816 13.3793 19.6073 12.9015 19.2086 12.5637C18.9005 12.3045 18.4542 12.1159 17.757 11.947L16.7924 11.717C16.0667 11.5497 15.8375 11.3809 15.8375 10.992C15.8375 10.5156 16.3348 10.1767 17.022 10.1767C17.3494 10.1767 17.6782 10.2563 17.9468 10.4039C18.225 10.5534 18.4337 10.7444 18.7321 11.1521L19.7469 10.3958C19.4478 10.0561 19.3392 9.94824 19.1197 9.7585C18.5326 9.28086 17.8467 9.05249 17.0413 9.05249C15.5496 9.05239 14.5344 9.88756 14.5344 11.1022Z" fill="#141617"></path>
    <path d="M22.2412 10.306H23.3259C24.2202 10.306 24.6287 10.6542 24.6287 11.3896C24.6287 12.2063 24.1704 12.5935 23.2271 12.5935H22.2412V10.306ZM21.0181 9.25134V15.8763H22.2412V13.6584H23.5146C24.1607 13.6584 24.5592 13.5588 24.9573 13.2902C25.5732 12.8814 25.9215 12.2155 25.9215 11.4395C25.9215 10.0761 24.9859 9.25134 23.4357 9.25134H21.0181Z" fill="#141617"></path>
    <path d="M28.2185 10.306H29.4211C30.2369 10.306 30.7042 10.6742 30.7042 11.3104C30.7042 11.9763 30.2273 12.3651 29.391 12.3651H28.2185V10.306ZM26.9942 9.25134V15.8763H28.2185V13.4193H29.4412L30.7541 15.8763H32.1264L30.6744 13.2215C31.0026 13.0711 31.1228 12.9915 31.311 12.8412C31.7585 12.4834 31.9977 11.9667 31.9977 11.3697C31.9977 10.8831 31.8187 10.3652 31.52 9.99809C31.0926 9.47056 30.4958 9.25144 29.5212 9.25144H26.9942" fill="#141617"></path>
    <path d="M34.8379 9.25122H33.6147V15.8762H34.8379V9.25122Z" fill="#141617"></path>
    <path d="M40.6033 9.25134V13.7272L37.8466 9.25134H36.683V15.8763H37.8374V11.3413L40.662 15.8763H41.7674V9.25134H40.6033Z" fill="#141617"></path>
    <path d="M43.1855 12.603C43.1855 14.6118 44.4786 16.0753 46.2598 16.0753C46.7271 16.0753 47.2031 15.9461 47.5822 15.7375C47.7724 15.6273 47.8706 15.5477 48.1499 15.31V15.8761H49.2035V12.2641H46.4183V13.3399H48.0696C47.9703 14.3432 47.3644 14.9214 46.3989 14.9214C45.2446 14.9214 44.5088 13.9957 44.5088 12.5233C44.5088 11.0816 45.2345 10.1475 46.3494 10.1475C47.1649 10.1475 47.7016 10.5656 48.0205 11.4394L49.1645 10.962C48.9442 10.4241 48.8142 10.2266 48.5271 9.91862C47.9913 9.37144 47.2148 9.05225 46.3796 9.05225C44.5088 9.05225 43.1855 10.5247 43.1855 12.603Z" fill="#141617"></path>
    <path d="M50.8218 9.25134V15.8763H52.0453V13.0711H54.8703V12.0164H52.0453V10.3462H55.3287V9.25134H50.8218Z" fill="#141617"></path>
    <path d="M57.6933 9.25122H56.4707V15.8762H57.6933V9.25122Z" fill="#141617"></path>
    <path d="M59.4025 9.25134V15.8763H64.3855V14.7819H60.6256V12.9725H63.8285V11.9171H60.6256V10.3462H64.1067V9.25134H59.4025Z" fill="#141617"></path>
    <path d="M65.6261 9.25134V15.8763H69.5853V14.7819H66.8504V9.25134H65.6261Z" fill="#141617"></path>
    <path d="M71.7918 10.3462H72.4885C74.0597 10.3462 74.667 10.9622 74.667 12.5543C74.667 13.2203 74.5757 13.7068 74.3685 14.0864C74.0907 14.603 73.6018 14.782 72.4884 14.782H71.7917V10.3462H71.7918ZM70.5677 9.25132V15.8763H72.5977C73.4128 15.8763 74.02 15.7673 74.5177 15.5184C75.4614 15.0505 75.9999 13.987 75.9999 12.603C75.9999 11.6199 75.7497 10.813 75.2533 10.2251C75.0446 9.97745 74.7957 9.76796 74.5177 9.61954C74.0099 9.34012 73.5326 9.25122 72.5977 9.25122H70.5677" fill="#141617"></path>
    <path d="M7.40835 8.41346C7.49292 8.41346 7.59136 8.40152 7.69596 8.3889C7.7917 8.37725 7.88185 8.36636 7.94667 8.36752L7.97268 8.3681L7.99531 8.35529C8.03153 8.33487 8.07102 8.29287 8.07343 8.23614C8.07468 8.20811 8.06697 8.15437 8.00302 8.11064C7.91132 8.04669 7.46942 7.97608 7.36511 8.00787C7.34767 8.01326 7.33014 8.01798 7.31338 8.02241C7.2372 8.04303 7.1508 8.06624 7.12162 8.14772C7.09282 8.22824 7.14647 8.30318 7.16429 8.32822C7.21138 8.39333 7.29817 8.41346 7.40835 8.41346Z" fill="#141617"></path>
    <path d="M6.50778 9.58064C6.54043 9.58064 6.7217 9.55656 7.19327 9.4928C7.65473 9.43029 8.3512 9.33474 8.42527 9.33801C8.69958 9.3462 8.81343 9.28446 8.88884 9.24353C8.90368 9.23553 8.91726 9.22792 8.92891 9.2232C8.97755 9.20509 9.01117 9.16984 9.02349 9.1239C9.04574 9.04087 8.98747 8.96189 8.96898 8.93964L8.93276 8.89582L8.38626 9.00639C8.23658 8.9878 8.14103 8.96315 8.10973 8.90237C8.15066 8.78467 8.28927 8.72042 8.35804 8.68845C8.40042 8.6688 8.4715 8.63586 8.45397 8.55659C8.43615 8.47559 8.35707 8.47559 8.2936 8.47559H8.27106L8.25084 8.4857C7.92788 8.64819 7.54483 8.63952 7.29122 8.63374C7.14858 8.63046 7.06266 8.62863 7.00391 8.65406C6.91144 8.69529 6.89257 8.75298 6.89295 8.79411C6.89382 8.88118 6.97935 8.92414 7.00564 8.93512L7.02606 8.94118C7.0695 8.94889 7.1165 8.95679 7.16582 8.96507C7.34545 8.99541 7.72253 9.05888 7.8804 9.13324C7.60127 9.21068 6.78199 9.26924 6.58117 9.23775C6.60766 9.20847 6.66054 9.1684 6.68934 9.14663C6.77005 9.08528 6.88062 9.00148 6.80723 8.90266C6.78267 8.86827 6.70995 8.79334 6.56335 8.84015C6.37313 8.90102 6.14081 9.1501 6.14081 9.354C6.14081 9.58064 6.40741 9.58064 6.50778 9.58064Z" fill="#141617"></path>
    <path d="M8.37336 10.3893C8.37557 10.4456 8.37943 10.54 9.00376 10.54C9.22066 10.54 10.0054 10.2664 10.1898 9.98985C10.249 9.90095 10.2388 9.82775 10.2201 9.78296C10.1776 9.67826 10.1045 9.65515 10.0647 9.65062C9.97184 9.64032 9.89065 9.70533 9.84952 9.76428L9.8474 9.76736C9.61942 10.1232 9.05086 10.2107 8.81796 10.2319C8.48393 10.2588 8.36883 10.2739 8.37336 10.3893Z" fill="#141617"></path>
    <path d="M8.4847 9.70377C8.46139 9.71215 8.4324 9.72255 8.42807 9.72371L7.25839 9.87791L7.20291 9.87801L7.14868 9.97644L7.17873 10.0238C7.19472 10.0491 7.20243 10.0612 7.26465 10.0667V10.0679L7.27486 10.0675C7.30818 10.0698 7.35548 10.0705 7.42396 10.0705C7.47876 10.0705 7.54705 10.0701 7.63268 10.0694C7.83225 10.0679 8.12707 10.0626 8.39291 10.0461C8.42412 10.0461 8.66963 10.0079 8.85745 9.9723C9.30696 9.88687 9.35666 9.8416 9.36302 9.75848C9.37111 9.6507 9.24465 9.63115 9.20265 9.62469C8.85735 9.57018 8.61492 9.65705 8.4847 9.70377Z" fill="#141617"></path>
    <path d="M5.62688 10.0026C5.76683 10.1149 6.09238 10.179 6.3797 10.2354C6.44635 10.2486 6.50982 10.2612 6.56713 10.2736C6.63841 10.2885 6.69408 10.2942 6.73761 10.2942C6.84867 10.2942 6.88141 10.2573 6.8948 10.2423C6.92254 10.2112 6.93111 10.169 6.91782 10.1294C6.90886 10.1029 6.8818 10.0223 6.63821 9.97413C6.49961 9.94533 6.31035 9.87425 6.15836 9.81713C5.99317 9.75511 5.91651 9.72698 5.86738 9.72602C5.60646 9.71523 5.57265 9.8023 5.56158 9.831C5.54877 9.86423 5.5401 9.9305 5.62688 10.0026Z" fill="#141617"></path>
    <path d="M5.59492 10.4634C5.63739 10.4805 5.70578 10.5082 5.7314 10.5273C5.76328 10.7927 5.99666 10.8103 6.13439 10.7967C6.21058 10.789 6.35168 10.8352 6.50088 10.884C6.70449 10.9505 6.93527 11.026 7.15959 11.026C7.24493 11.026 7.32035 11.004 7.39316 10.9828C7.45144 10.9658 7.50711 10.9496 7.56721 10.9444V11.4745C7.56047 11.48 7.55151 11.4867 7.54429 11.4922C7.48457 11.5372 7.38469 11.6126 7.34202 11.7771C7.31149 11.9015 7.34886 11.9706 7.38565 12.0068C7.43053 12.0508 7.48929 12.0615 7.53571 12.0615C7.56297 12.0615 7.58589 12.0578 7.59928 12.055C7.64696 12.0503 7.69194 12.0125 7.85452 11.8721C8.06883 11.687 8.46758 11.3423 8.66484 11.3423C8.68834 11.3426 8.77686 11.3656 8.83552 11.3807C8.94859 11.41 9.02074 11.4278 9.06822 11.4278C9.13401 11.4278 9.20326 11.3808 9.36738 11.2649C9.6154 11.09 10.0303 10.7973 10.4127 10.7973C10.4228 10.7974 10.4406 10.7998 10.463 10.8025C10.635 10.8227 10.8094 10.8338 10.8876 10.7291C10.9155 10.6915 10.9401 10.626 10.8964 10.525C10.8258 10.375 10.6636 10.4045 10.439 10.4454C10.3552 10.4606 10.2508 10.4795 10.1295 10.4953C9.90426 10.5227 9.77895 10.6064 9.64632 10.695C9.45908 10.8202 9.24679 10.9621 8.64336 11.01C8.46758 11.0227 8.22544 11.1301 8.04851 11.2086C8.0015 11.2294 7.94468 11.2546 7.91819 11.2641C7.89844 11.245 7.87128 11.1627 7.87128 11.0756C7.87128 10.9991 8.00189 10.7533 8.17343 10.6312L8.18904 10.62L8.19915 10.6036C8.22689 10.5586 8.24528 10.4845 8.20599 10.4233C8.14714 10.3315 8.01749 10.3475 7.97405 10.3529C7.86733 10.3671 7.75397 10.4315 7.63386 10.4997C7.48813 10.5824 7.32304 10.6756 7.18098 10.6673C6.56358 10.6236 6.14903 10.4084 5.87472 10.2659C5.67081 10.16 5.53607 10.09 5.43012 10.1706L5.42906 10.1714C5.37165 10.2163 5.37242 10.2704 5.37541 10.2917C5.38783 10.3796 5.47924 10.4166 5.59492 10.4634Z" fill="#141617"></path>
    <path d="M5.4112 11.1727C5.45926 11.1744 5.64679 11.236 5.79744 11.2856C6.11268 11.3894 6.27816 11.4393 6.3739 11.4393C6.42976 11.4393 6.46193 11.4223 6.4863 11.389C6.50123 11.3686 6.53032 11.313 6.47667 11.2385L6.47657 11.2384C6.38401 11.1103 6.04796 11.0001 5.50733 10.8309C5.17811 10.728 4.83763 10.6213 4.7023 10.5363C4.64471 10.4998 4.57276 10.4545 4.50986 10.5032C4.47634 10.5291 4.46334 10.5726 4.47663 10.6142C4.51131 10.7228 5.04394 11.1581 5.4112 11.1727ZM6.32265 11.3498L6.33489 11.3409C6.33556 11.341 6.33633 11.3411 6.33701 11.3412L6.32352 11.3513C6.32323 11.3507 6.32294 11.3503 6.32265 11.3498Z" fill="#141617"></path>
    <path d="M10.477 11.2057C10.0727 11.2057 9.75366 11.4054 9.52076 11.5512C9.39112 11.6323 9.25724 11.716 9.20272 11.6958C8.97156 11.6123 8.33933 11.7647 8.19312 11.9394C8.1467 11.9949 8.13822 12.0612 8.1701 12.1164C8.1988 12.1668 8.22837 12.2189 8.28732 12.2342C8.29792 12.237 8.30803 12.2381 8.31785 12.2381C8.35802 12.2381 8.39163 12.2177 8.42197 12.1992C8.48111 12.1632 8.59111 12.0961 8.86397 12.0599L9.01221 12.0411C9.55014 11.9732 9.73141 11.9503 9.79787 11.8344C9.80933 11.8143 9.81983 11.7858 9.81829 11.75C9.99156 11.6056 10.3427 11.5111 10.5271 11.5082C10.9425 11.5857 10.9776 11.5265 11.0031 11.4832C11.022 11.4513 11.0281 11.4002 10.9865 11.35C10.8947 11.2469 10.6045 11.2149 10.484 11.2059L10.477 11.2057Z" fill="#141617"></path>
    <path d="M4.39701 11.4387C4.57443 11.4689 4.67412 11.501 4.69396 11.5344L4.69405 11.535C4.70552 11.6101 4.70754 11.6235 5.80228 12.1599C6.25209 12.3804 6.76199 12.6303 6.84714 12.6977C6.88287 12.7253 6.91456 12.7347 6.94114 12.7347C6.96108 12.7347 6.97813 12.7293 6.99152 12.7229C7.07444 12.6827 7.08841 12.5804 7.09082 12.2726L7.09092 12.2598L7.08774 12.2475C6.88836 11.4938 6.7748 11.4866 6.70699 11.4822C6.6701 11.4797 6.6021 11.4912 6.56021 11.5939C6.50617 11.724 6.59883 11.848 6.68051 11.9573C6.77162 12.0794 6.82884 12.1651 6.79483 12.2424C6.7827 12.2703 6.77499 12.2798 6.77538 12.2808C6.77355 12.2811 6.76893 12.2818 6.75949 12.2815C6.70093 12.2662 6.45146 12.1206 6.23099 11.9921C5.3807 11.4961 4.651 11.0936 4.33161 11.1894C4.2875 11.2028 4.19571 11.2309 4.20129 11.3183C4.20698 11.4064 4.28673 11.4199 4.39701 11.4387Z" fill="#141617"></path>
    <path d="M10.6423 11.8104C10.5313 11.8641 10.3645 11.9052 10.2304 11.9383C10.0062 11.9936 9.90391 12.0189 9.9043 12.1229C9.90468 12.2213 10.0192 12.2487 10.0803 12.2634C10.0919 12.2661 10.1048 12.2675 10.119 12.2675C10.3205 12.2675 10.756 11.9948 10.7908 11.9349L10.8268 11.8722L10.7779 11.8204C10.7279 11.7678 10.6643 11.7992 10.6423 11.8104Z" fill="#141617"></path>
    <path d="M4.42764 12.264C4.44728 12.2635 4.47628 12.2626 4.49641 12.2645C4.49756 12.2705 4.4993 12.2767 4.50161 12.2827C4.53253 12.3639 4.69521 12.405 4.98493 12.405C5.13249 12.405 5.51593 12.5849 5.71935 12.7021C5.70153 12.7013 5.68419 12.7002 5.66859 12.6994C5.46103 12.6878 5.26492 12.677 5.23439 12.8191C5.22466 12.86 5.23487 12.9017 5.26261 12.9335C5.32512 13.0049 5.50225 13.0268 5.79525 12.9976C5.97478 12.9678 6.54296 13.3639 6.67598 13.7092C6.70689 13.7908 6.74099 13.9351 6.77711 14.0879C6.89057 14.5685 6.97755 14.8898 7.14446 14.9737C7.17182 14.9875 7.20033 14.9943 7.22903 14.9943C7.25455 14.9943 7.28017 14.9888 7.30541 14.978L7.33469 14.9653L7.35049 14.9376C7.39373 14.8611 7.3554 14.7584 7.28942 14.5973C7.2718 14.5542 7.24521 14.4894 7.2429 14.4735C7.2429 14.4313 7.22315 14.3296 7.18116 14.1234C7.15843 14.0113 7.12713 13.8577 7.12607 13.8282C7.12607 13.5372 7.35771 12.8061 7.90489 12.8061C8.32724 12.8061 8.35036 12.8664 8.36413 12.9024C8.4121 13.0276 8.49618 13.0912 8.8226 13.0912C9.44963 13.0912 10.4482 12.798 11.1091 12.604C11.233 12.5676 11.3445 12.5348 11.4431 12.5072C11.4927 12.4903 11.5484 12.4488 11.556 12.383C11.5607 12.3424 11.5483 12.2828 11.4628 12.2293C11.3327 12.1479 11.1535 12.1974 11.0983 12.2158C11.0522 12.2201 10.9915 12.2392 10.9025 12.2681C10.8402 12.2885 10.7695 12.3115 10.7252 12.3189C10.5806 12.342 10.3576 12.4001 10.0995 12.4671C9.65238 12.5835 9.09576 12.7282 8.78176 12.7282C8.75836 12.7282 8.73428 12.7308 8.7103 12.7335C8.6894 12.7358 8.65424 12.7398 8.64567 12.736C8.64567 12.736 8.64538 12.7357 8.6448 12.735C8.65328 12.7245 8.66291 12.7133 8.67187 12.7029C8.72426 12.642 8.78947 12.5664 8.76144 12.4781C8.74343 12.4216 8.69315 12.3827 8.61234 12.3624C8.45785 12.323 8.3492 12.3982 8.26984 12.4528C8.23728 12.4751 8.20049 12.5006 8.18479 12.5006H8.1844C7.88572 12.4853 7.80405 12.4059 7.71755 12.3219C7.66583 12.2717 7.60717 12.2145 7.50931 12.1797C7.4104 12.1453 7.35627 12.1926 7.33748 12.2145C7.25301 12.3135 7.3396 12.5382 7.40067 12.6667C7.22826 12.8195 7.08022 12.9987 6.94807 13.1587C6.91609 13.1973 6.88498 13.2351 6.85493 13.2707C6.36641 12.6011 5.61369 12.1299 4.90672 12.0588L4.9047 12.0586C4.84951 12.0543 4.75723 12.0221 4.66804 11.991C4.48629 11.9276 4.32939 11.8727 4.22951 11.9391C4.18761 11.9669 4.16276 12.0124 4.1593 12.0672C4.15486 12.1386 4.18183 12.1824 4.20524 12.2067C4.26457 12.2682 4.35135 12.2661 4.42764 12.264Z" fill="#141617"></path>
    <path d="M4.23941 13.3131C4.29075 13.3131 4.38697 13.3492 4.49822 13.3911C4.72957 13.4782 5.06245 13.6035 5.48692 13.6035C5.55675 13.6035 5.62918 13.6 5.70402 13.5925C5.81748 13.5819 5.95281 13.5392 5.9923 13.4516C6.0106 13.4111 6.00617 13.3659 5.98055 13.3306C5.93499 13.2678 5.83549 13.2487 5.65894 13.2682C5.62359 13.2717 5.43019 13.2541 5.3147 13.2436C5.19479 13.2329 5.12553 13.2267 5.09587 13.2267C4.8073 13.2267 4.50862 13.1768 4.27881 12.815L4.2711 12.803L4.26022 12.7935C4.20715 12.7483 4.12913 12.7025 4.05969 12.741C4.0383 12.7528 3.98985 12.7898 4.00189 12.8775C4.03339 13.1706 4.11102 13.3131 4.23941 13.3131Z" fill="#141617"></path>
    <path d="M7.80997 15.3181C7.79524 15.3165 7.77809 15.3148 7.76259 15.3126C8.03642 14.9065 8.09893 14.6768 8.12281 14.182C8.15123 14.1787 8.17251 14.1642 8.18667 14.1506C8.29108 14.0499 8.1466 13.7834 8.06502 13.697C7.99375 13.6203 7.92556 13.5208 7.86536 13.4331C7.76413 13.2857 7.71318 13.2114 7.63468 13.2078C7.5372 13.2029 7.49039 13.2436 7.46795 13.2789C7.40274 13.3817 7.47623 13.5183 7.58748 13.7254C7.66993 13.879 7.7726 14.0699 7.78378 14.2115C7.80959 14.5634 7.66559 15.1436 7.16349 15.2998C7.09617 15.3206 7.03635 15.3397 6.98319 15.3566C6.85942 15.3959 6.74933 15.4308 6.69433 15.4396C6.71436 15.3879 6.77793 15.2966 6.81502 15.2435C6.90363 15.1163 6.97365 15.0159 6.95169 14.9249C6.94244 14.8867 6.91798 14.8554 6.88407 14.8375C6.75356 14.7652 6.66736 14.9157 6.55833 15.1061C6.45074 15.2941 6.29076 15.5791 6.12384 15.5703C6.11604 15.5699 6.09812 15.568 6.07318 15.5653C5.62973 15.5181 5.39876 15.5219 5.37632 15.6735C5.36765 15.7164 5.3794 15.7593 5.40897 15.7919C5.46753 15.8567 5.62289 15.8761 5.78837 15.8761C5.99458 15.8761 6.2164 15.8459 6.28479 15.8357C6.55794 15.7952 6.75934 15.7504 6.92106 15.7144C7.10946 15.6724 7.24555 15.6421 7.38878 15.6417C7.52882 15.6395 7.72425 15.6863 7.88212 15.7236C8.12994 15.7824 8.25438 15.8119 8.31169 15.719C8.34396 15.6667 8.33086 15.6051 8.27326 15.5365C8.11867 15.3497 7.93288 15.3307 7.80997 15.3181Z" fill="#141617"></path>
    <path d="M5.67182 14.3952C5.69311 14.3981 5.74868 14.4095 5.79819 14.4197C6.3497 14.5327 6.62209 14.5568 6.67978 14.3876C6.70993 14.2955 6.68325 14.2306 6.65551 14.1924C6.58029 14.0884 6.42387 14.0803 6.39189 14.0797C6.26494 14.0703 5.86523 14.0429 5.76245 14.0636C5.6959 14.0673 5.34482 13.9783 5.05548 13.8934L5.04239 13.8896H5.02871C4.91091 13.8896 4.73532 13.7847 4.58045 13.6921C4.35882 13.5597 4.16744 13.4452 4.05272 13.5814L4.05263 13.5816C4.01237 13.6299 4.00543 13.6924 4.03394 13.7533C4.13026 13.9598 4.70604 14.1936 4.85611 14.1936H4.95531C4.63429 14.2916 4.46621 14.3497 4.4562 14.4756C4.4534 14.5105 4.46323 14.5764 4.56118 14.6244C4.59749 14.6416 4.64421 14.6491 4.6994 14.6491C4.893 14.6491 5.19081 14.5552 5.50538 14.449C5.57155 14.4265 5.64601 14.4014 5.67182 14.3952Z" fill="#141617"></path>
    <path d="M11.6307 14.2841C11.5835 14.1782 11.4598 14.1912 11.1611 14.2226C10.98 14.2417 10.7321 14.2678 10.4408 14.2724C10.0032 14.2781 9.89269 14.2131 9.7643 14.1381C9.69148 14.0957 9.60894 14.0475 9.47207 14.008C9.32153 13.9626 9.05396 13.9434 8.9744 14.0846C8.94801 14.1313 8.92451 14.2283 9.06311 14.3531L9.07457 14.3635L9.08882 14.3696C9.52476 14.559 10.6479 14.5653 10.7959 14.5653H10.8103C10.8528 14.5653 11.029 14.5489 11.1978 14.5244C11.5363 14.475 11.5906 14.433 11.6198 14.3907C11.6409 14.3603 11.6457 14.3234 11.6307 14.2841Z" fill="#141617"></path>
    <path d="M10.0613 13.8241L10.0606 13.8249C10.0263 13.8641 9.94596 13.9556 10.0248 14.0266C10.0444 14.0442 10.0638 14.0541 10.0882 14.0541C10.1461 14.0541 10.233 13.9983 10.4208 13.8554C10.5393 13.7654 10.6901 13.6431 10.7487 13.5818C10.8044 13.5481 11.1391 13.4184 11.267 13.3891L11.2849 13.3849L11.3001 13.3745C11.3173 13.3626 11.4026 13.2981 11.3933 13.2055C11.3901 13.1726 11.3715 13.112 11.2823 13.0735C10.8874 12.9091 10.0694 13.8149 10.0613 13.8241Z" fill="#141617"></path>
    <path d="M9.97205 15.5834L9.95933 15.574L9.94421 15.5693C9.86369 15.5442 9.74984 15.542 9.60556 15.5392C9.3509 15.5343 9.00223 15.5274 8.7963 15.366C8.6029 15.2155 8.56967 14.8831 8.69209 14.3201C8.95966 13.577 9.65699 13.4683 10.0322 13.4097C10.2117 13.3817 10.3105 13.3663 10.3287 13.2693C10.3468 13.1728 10.2463 13.1147 10.1799 13.0761C10.064 13.0088 9.8843 13.0797 9.57657 13.2111C9.3586 13.3039 8.99404 13.4597 8.91756 13.3725L8.75354 13.1854L8.75103 13.4344C8.74939 13.6097 8.61725 13.8023 8.50061 13.9722C8.43434 14.0686 8.37183 14.1596 8.33022 14.2482L8.32666 14.2572C8.13576 14.8014 8.22379 15.2574 8.36981 15.5026C8.45543 15.6464 8.57044 15.7364 8.69343 15.7563C9.20719 15.8404 9.52302 15.8691 9.71893 15.8691C10.0093 15.8691 10.0358 15.8062 10.0519 15.7678C10.0703 15.7238 10.0714 15.6562 9.97205 15.5834Z" fill="#141617"></path>
  </symbol>
  <symbol version="1.1" xmlns="http://www.w3.org/2000/svg" xmlns:xlink="http://www.w3.org/1999/xlink"  viewBox="0 -6.5 38 38" id="right-arrow">
    <g id="SVGRepo_bgCarrier" stroke-width="0"></g>
    <g id="SVGRepo_tracerCarrier" stroke-linecap="round" stroke-linejoin="round"></g>
    <g id="SVGRepo_iconCarrier">
      <title>right-arrow</title>
      <desc>Created with Sketch.</desc>
      <g id="icons" stroke="none" stroke-width="1" fill-rule="evenodd">
        <g id="ui-gambling-website-lined-icnos-casinoshunter" transform="translate(-1511.000000, -158.000000)"  fill-rule="nonzero">
          <g id="1" transform="translate(1350.000000, 120.000000)">
            <path d="M187.812138,38.5802109 L198.325224,49.0042713 L198.41312,49.0858421 C198.764883,49.4346574 198.96954,49.8946897 199,50.4382227 L198.998248,50.6209428 C198.97273,51.0514917 198.80819,51.4628128 198.48394,51.8313977 L198.36126,51.9580208 L187.812138,62.4197891 C187.031988,63.1934036 185.770571,63.1934036 184.990421,62.4197891 C184.205605,61.6415481 184.205605,60.3762573 184.990358,59.5980789 L192.274264,52.3739093 L162.99947,52.3746291 C161.897068,52.3746291 161,51.4850764 161,50.3835318 C161,49.2819872 161.897068,48.3924345 162.999445,48.3924345 L192.039203,48.3917152 L184.990421,41.4019837 C184.205605,40.6237427 184.205605,39.3584519 184.990421,38.5802109 C185.770571,37.8065964 187.031988,37.8065964 187.812138,38.5802109 Z" id="right-arrow"></path>
          </g>
        </g>
      </g>
    </g>
  </symbol>
</svg>